<?xml version="1.0" encoding="iso-8859-1"?>
<!-- Generator: Adobe Illustrator 18.0.0, SVG Export Plug-In . SVG Version: 6.00 Build 0)  -->
<!DOCTYPE svg PUBLIC "-//W3C//DTD SVG 1.1//EN" "http://www.w3.org/Graphics/SVG/1.1/DTD/svg11.dtd">
<svg version="1.1" id="Capa_1" xmlns="http://www.w3.org/2000/svg" xmlns:xlink="http://www.w3.org/1999/xlink" x="0px" y="0px"
	 viewBox="0 0 56.609 56.609" style="enable-background:new 0 0 56.609 56.609;" xml:space="preserve">
<g>
	<path style="fill:#1D1D1B;" d="M52.44,14.297C45.443,2.89,31.239-1.24,19.132,3.991c-0.053-0.078-0.139-0.131-0.27-0.117
		C6.729,5.194-0.242,16.449,0.006,28.018c0.262,12.235,6.759,23.099,19.11,25.899c10.367,2.35,24.188,0.471,31.757-7.64
		C58.476,38.132,58.019,23.393,52.44,14.297z M39.17,52.23c-12.02,3.684-28.12,2.28-34.729-9.886
		C-2.915,28.804,0.917,7.096,18.437,4.631c0.057,0.084,0.144,0.145,0.255,0.099C31.733-0.669,46.94,4.078,53.103,17.19
		c2.957,6.292,3.403,14.463,1.382,21.119C52.275,45.589,46.207,50.074,39.17,52.23z"/>
	<path style="fill:#1D1D1B;" d="M50.598,23.743c-0.133-0.385-0.275-0.871-0.666-1.072c-0.343-0.177-0.777-0.065-1.138-0.001
		c0.001-0.011,0.011-0.017,0.01-0.029c-0.161-1.205,0.466-2.123,1.097-3.074c0.248-0.374,0.62-0.767,0.634-1.24
		c0.036-1.167-1.101-2.346-2.227-2.458c-0.037-0.057-0.08-0.109-0.117-0.166c-0.057-0.089-0.17-0.123-0.264-0.069
		c-1.092,0.618-1.852,1.511-2.271,2.622c0.166-3.681-2.365-7.214-5.806-8.46c-0.043-0.016-0.079,0.005-0.115,0.023
		c-0.255-0.155-0.594-0.151-0.869-0.044c-0.225,0.087-0.361,0.205-0.444,0.369c-2.343-1.091-5.429-1.271-7.627,0.087
		c-0.459-0.679-1.145-1.221-2.174-1.526c-0.02-0.016-0.028-0.039-0.056-0.049c-19.317-6.55-24.719,28.831-8.73,35.96
		c2.357,1.775,5.174,2.477,7.911,2.221c1.371,1.047,2.877,1.72,4.574,2.053c-9.481,0.36-19.061-3.248-23.615-12.114
		c-5.029-9.791-1.523-19.385,6.837-25.7c0.166-0.126,0.027-0.387-0.167-0.285C6.723,15.313,3.829,26.257,7.306,35.016
		c3.998,10.072,14.705,15.2,25.149,14.335c0.238-0.02,0.278-0.309,0.128-0.416c0.902,0.157,1.819,0.228,2.733,0.247
		c0.974,0.02,2.959,0.268,3.827-0.159c1.674-0.823,1.182-2.98-0.195-3.864c-0.012-0.007-0.023-0.003-0.035-0.006
		c-0.003-0.023-0.005-0.046-0.008-0.069c-0.015-0.102-0.143-0.155-0.232-0.132c-0.162,0.042-0.323,0.081-0.484,0.12
		c-0.04-0.302-0.117-0.609-0.205-0.915c1.061,0.708,2.204,1.256,3.441,1.589c0.527,0.142,2.14,0.692,2.687,0.265
		c0.46-0.359,0.753-2.172,0.779-2.681c0.04-0.785-0.444-0.795-0.801-1.12c0.018-0.147,0.037-0.294,0.056-0.441
		c1.398-0.441,2.635-0.834,4.139-0.772c0.104,0.004,0.161-0.065,0.18-0.148c0.01-0.01,0.024-0.016,0.03-0.032
		c0.25-0.618,0.263-1.549-0.273-2.032c0.077-0.329,0.093-0.694,0.14-1.008c0.18-1.207-0.07-1.373-1.027-2.108
		c-0.041-0.054-0.091-0.103-0.152-0.146c-0.222-0.156-0.534-0.144-0.842-0.092c3.159-1.754,2.728-6.27-0.542-7.554
		c0.533-0.333,1.057-0.609,1.589-0.788c0.008,0.015,0.004,0.03,0.018,0.044c2.388,2.402,4.414,6.6,0.779,9.043
		c-0.132,0.089-0.016,0.295,0.126,0.215c3.893-2.181,2.095-7.022-0.543-9.405c0.813-0.195,1.654-0.144,2.585,0.336
		c0.173,0.089,0.329-0.057,0.304-0.233c-0.013-0.09-0.021-0.185-0.032-0.277c0.11-0.007,0.22-0.011,0.329-0.023
		c0.119-0.011,0.178-0.098,0.162-0.212C50.983,25.613,50.918,24.67,50.598,23.743z M49.762,17.239
		c0.241,0.495,0.377,1.157,0.176,1.661c-0.209,0.525-0.713,1.004-0.992,1.5c-0.418,0.74-0.619,1.442-0.498,2.288
		c0.003,0.022,0.021,0.03,0.031,0.046c-0.323,0.062-0.646,0.127-0.966,0.203c0.045-1.924,0.666-3.569,2.345-4.684
		c0.111-0.074,0.13-0.215,0.041-0.315c-0.489-0.546-0.929-1.124-1.346-1.722C49.063,16.406,49.556,16.815,49.762,17.239z
		 M48.115,16.301c0.181,0.08,0.742,0.969,0.878,1.197c0.431,0.725,0.37,0.387-0.064,0.939c-1.111,1.413-2.072,2.705-1.775,4.592
		c-0.134,0.034-0.268,0.064-0.401,0.101c0.059-0.44,0.144-1.003,0.174-1.19c0.07-0.443,0.189-0.512,0.15-0.93
		c-0.055-0.593-0.357-1.086-0.874-1.222c-0.01-0.129-0.04-0.245-0.149-0.359c-0.092-0.096-0.236-0.147-0.394-0.182
		C45.89,18.299,46.951,15.782,48.115,16.301z M46.182,23.145c-0.022,0.062-0.052,0.107-0.079,0.16c-0.001,0-0.002,0-0.003,0.001
		c-0.065,0.02-0.078,0.077-0.059,0.124c-0.398,0.614-1.153,0.499-1.993,0.402c-1.776-0.203-3.397-0.853-4.901-1.798
		c0.049-0.28,0.085-0.561,0.099-0.844c1.06,0.824,2.289,1.381,3.625,1.605c0.758,0.127,2.307,0.412,2.854-0.26
		c0.19-0.233,0.334-0.945,0.414-1.575c0.113,0.285,0.227,0.571,0.34,0.856c-0.1,0.246-0.176,0.498-0.23,0.757
		C46.272,22.455,46.138,23.267,46.182,23.145z M43.498,38.726c-0.65-0.295-1.405,0.173-1.768,0.728
		c-0.228-0.816-0.674-1.568-1.306-2.122c1.075,0.521,2.165,1.003,3.296,1.399c0.072,0.025,0.16,0.06,0.244,0.092
		c-0.154,0.01-0.312,0.048-0.469,0.091C43.56,38.869,43.589,38.767,43.498,38.726z M34.437,43.963
		c0.118-0.101,0.242-0.192,0.357-0.298c0.134,0.182,0.276,0.358,0.37,0.575c0.149,0.344,0.184,0.698,0.16,1.069
		c-0.008,0.13,0.2,0.159,0.228,0.031c0.126-0.581,0.001-1.486-0.496-1.92c0.31-0.302,0.611-0.616,0.891-0.956
		c0.132-0.16,0.248-0.334,0.372-0.5c0.763,0.985,1.361,1.905,1.63,3.168c-1.731,0.408-3.386,0.604-5.124,0.015
		c0.493-0.297,0.958-0.646,1.41-1.017c0.019,0.41,0.12,0.919,0.379,1.214c0.033,0.037,0.101,0.018,0.112-0.03
		C34.823,44.9,34.633,44.337,34.437,43.963z M36.558,41.644c0.201-0.286,0.387-0.583,0.567-0.884
		c0.304,0.448,0.709,0.724,1.205,0.89c0.001,0.007,0.004,0.014,0.006,0.022c0.019,0.094,0.126,0.084,0.169,0.022
		c0.112,0.031,0.222,0.064,0.343,0.086c0.57,0.103,1.159,0.08,1.735,0.082c0.499,0.002,2.392-0.291,2.805,0.001
		c0.044,0.031,0.076,0.079,0.108,0.125c0.02,0.045,0.043,0.086,0.068,0.118c0.228,0.522,0.018,1.536-0.137,1.97
		c-0.329,0.922-1.329,0.54-2.157,0.342c-1.624-0.387-3.081-1.22-4.317-2.324C36.825,41.94,36.706,41.777,36.558,41.644z
		 M37.867,40.401c0.132,0.236,0.232,0.481,0.317,0.731c-0.363-0.167-0.67-0.389-0.874-0.698c0.089-0.158,0.161-0.326,0.243-0.488
		C37.665,40.091,37.775,40.238,37.867,40.401z M37.697,39.657c0.064-0.135,0.138-0.265,0.2-0.401
		c0.219,0.196,0.458,0.371,0.632,0.628c0.29,0.428,0.45,0.911,0.478,1.427c0.003,0.059,0.038,0.091,0.079,0.111
		c-0.23-0.045-0.445-0.109-0.649-0.183C38.304,40.678,38.069,40.1,37.697,39.657z M43.359,38.946
		c-0.576,0.187-1.134,0.568-1.502,1.036c-0.016-0.104-0.051-0.203-0.074-0.305c0.007-0.006,0.015-0.006,0.02-0.014
		C42.202,39.05,42.718,39.003,43.359,38.946z M41.6,40.385c-0.011,0.023-0.027,0.044-0.037,0.067
		c-0.022,0.051,0.013,0.086,0.056,0.095c0.027,0.326,0.031,0.658-0.019,1.001c-0.817,0.031-1.676,0.026-2.429-0.111
		c0.059-0.009,0.113-0.047,0.112-0.126c-0.01-0.542-0.146-1.068-0.431-1.532c-0.181-0.295-0.471-0.673-0.809-0.861
		c0.302-0.716,0.53-1.462,0.72-2.215C40.308,37.389,41.403,38.757,41.6,40.385z M39.473,36.67c-0.007,0.012-0.011,0.023-0.016,0.036
		c-0.205-0.092-0.414-0.177-0.637-0.231c0.174-0.741,0.29-1.491,0.351-2.242c0.753-1.587,2.114-2.505,3.818-2.89
		c0.158-0.036,0.127-0.299-0.039-0.287c-1.602,0.116-3.016,1.211-3.739,2.619c0.012-0.303,0.013-0.606,0.002-0.907
		c-0.003-0.079-0.018-0.146-0.023-0.223c0.342-0.085,0.647-0.382,0.945-0.616c0.026-0.01,0.042-0.027,0.06-0.048
		c0.058-0.043,0.115-0.083,0.173-0.118c0.799-0.481,1.667-0.785,2.578-0.972c0.239,0.552,0.454,1.118,0.612,1.717
		c0.038,0.145,0.057,0.351,0.073,0.579c-1.654,0.606-3.148,2.109-4.157,3.474C39.449,36.598,39.456,36.636,39.473,36.67z
		 M38.852,30.597c0.435,0.099,0.869,0.199,1.303,0.302c-0.009,0.014-0.024,0.018-0.03,0.037c-0.073,0.216-0.117,0.441-0.163,0.665
		c-0.324-0.049-0.635-0.146-0.936-0.273C38.975,31.079,38.924,30.829,38.852,30.597z M43.66,33.485
		c0.05,0.731,0.147,1.54,0.699,1.644c0.377,0.071,0.929-0.242,1.413-0.615c-0.241,0.443-0.525,0.802-1.04,1.054
		c-0.008,0.004-0.008,0.012-0.014,0.017c-0.925-0.087-1.772-0.493-2.262-1.362c-0.003-0.005-0.009-0.004-0.012-0.009
		C42.846,33.966,43.255,33.731,43.66,33.485z M45.345,34.215c-0.388,0.15-0.74,0.317-1.042-0.13
		c-0.154-0.228-0.201-1.17-0.271-1.452c-0.119-0.478-0.267-0.95-0.44-1.411c-0.586-1.568-1.498-3.017-2.699-4.186
		c-0.094-0.091-0.215,0.042-0.139,0.139c0.822,1.061,1.525,2.167,2.073,3.358c-0.655,0.121-1.282,0.311-1.886,0.596
		c-0.054,0.026-0.312,0.167-0.619,0.342c0.038-0.151,0.084-0.3,0.106-0.454c0.003-0.024-0.008-0.04-0.013-0.06
		c0.045,0.011,0.09,0.02,0.136,0.031c0.112,0.028,0.271-0.059,0.254-0.193c-0.189-1.495-0.206-2.973-0.092-4.449
		c0.007,0.012,0.009,0.026,0.022,0.036c2.327,1.775,3.726,4.239,3.776,7.195c0.004,0.221,0.252,0.296,0.407,0.169
		c0.478-0.39,1.326-0.913,1.831-1.529C46.737,33.081,46.13,33.913,45.345,34.215z M44.951,33.12c-0.199-2.84-1.616-5.433-4.11-6.918
		c-0.05-0.03-0.09-0.012-0.118,0.018c0.049-0.593,0.122-1.187,0.219-1.78c1.858,0.87,3.168,2.338,4.264,4.066
		c0.387,0.61,1.159,1.522,1.282,2.219C46.678,31.803,45.739,32.516,44.951,33.12z M43.144,25.371c0.526-0.165,1.073-0.323,1.54-0.6
		c0.152-0.09,0.045-0.296-0.114-0.27c-0.6,0.099-1.182,0.382-1.749,0.608c-0.547-0.422-1.145-0.787-1.818-1.063
		c0.022-0.122,0.034-0.243,0.058-0.365c0.052-0.262-0.347-0.376-0.403-0.111c-0.306,1.45-0.476,2.92-0.469,4.403
		c0.002,0.462,0.353,2.012,0.146,2.314c-0.268,0.388-1.002,0.22-1.554,0.115c-0.182-0.54-0.403-1.046-0.665-1.521
		c0.139-1.882,0.289-3.677,0.762-5.542c0.016-0.063-0.022-0.103-0.069-0.112c0.11-0.297,0.207-0.599,0.275-0.909
		c1.165,0.859,2.45,1.487,3.874,1.805c0.589,0.132,1.59,0.363,2.438,0.344c-0.654,0.347-1.279,0.813-1.883,1.223
		C43.394,25.579,43.268,25.476,43.144,25.371z M36.081,25.932c-0.493-0.663-0.98-1.351-1.408-2.117
		c0.027-0.006,0.055-0.01,0.079-0.033c1.077-1.01,1.74-3.032,1.486-4.513c0.834-0.011,1.69-0.084,2.509-0.243
		c0.104,0.573,0.129,1.119,0.108,1.65c-0.073,0-0.135,0.099-0.069,0.158c0.021,0.019,0.044,0.032,0.065,0.051
		C38.716,22.86,37.737,24.545,36.081,25.932z M37.283,25.547c-0.108,0.587-0.18,1.189-0.166,1.784
		c-0.257-0.358-0.521-0.713-0.79-1.071C36.679,26.064,36.992,25.817,37.283,25.547z M35.074,19.427
		c-0.174,1.066-0.488,2.087-0.896,3.084c-0.187-1.109-0.316-2.225-0.34-3.347c0.689,0.07,1.461,0.112,2.257,0.108
		c-0.136,0.696-0.199,1.396-0.43,2.074c-0.275,0.809-0.743,1.453-1.144,2.188c-0.093-0.178-0.185-0.357-0.271-0.544
		c-0.007-0.039-0.01-0.078-0.017-0.117c0.021-0.008,0.042-0.019,0.057-0.047c0.56-1.039,0.907-2.149,1.097-3.312
		C35.419,19.309,35.108,19.222,35.074,19.427z M39.518,12.862c0.003,0.462-0.181,0.729-0.521,1.179
		c-0.199,0.262-0.598,1.052-1.017,0.979c-0.113-0.019-0.36-0.339-0.546-0.568c-0.012-0.078-0.058-0.143-0.131-0.156
		c-0.022-0.024-0.042-0.045-0.057-0.058c-0.981-0.823-2.207-1.14-3.465-1.017c-0.026,0.003-0.044,0.015-0.058,0.03
		c-0.134-0.336-0.289-0.656-0.486-0.943c0.996-0.045,1.976,0.089,2.897,0.515c0.475,0.22,1.153,0.958,1.625,1.001
		c0.734,0.067,1.184-1.28,1.443-2.18c0.13,0.239,0.225,0.494,0.287,0.845c0.003,0.018,0.001,0.029,0.004,0.046
		c-0.032,0.024-0.051,0.061-0.043,0.101C39.481,12.781,39.496,12.828,39.518,12.862z M39.831,13.692
		c-0.004-0.008-0.013-0.008-0.018-0.014c0.036-0.069,0.06-0.139,0.09-0.208c0.43,0.641,0.895,1.255,1.345,1.882
		c0.479,0.668,0.48,0.501,0.108,1.472c-0.4,1.045-0.752,1.078-1.769,1.402c-1.851,0.59-3.811,0.825-5.748,0.755
		c-0.004-0.326-0.007-0.653,0.006-0.979c1.258,1.035,4.306-0.029,5.556-0.545c0.648-0.267,1.609-0.577,1.702-1.398
		C41.208,15.123,40.2,14.428,39.831,13.692z M39.845,14.597c0.217,0.479,0.479,1.537,0.177,2.071
		c-0.187,0.332-1.146,0.506-1.458,0.616c-1.083,0.383-3.715,1.326-4.712,0.469c0.004-0.076,0.001-0.153,0.006-0.229
		c0.048-0.727,0.167-1.469,0.194-2.207c1.06,0.197,2.146,0.004,3.068-0.551c0.175,0.185,0.352,0.371,0.568,0.546
		c0.416,0.337,0.531,0.348,0.908-0.057c0.29-0.311,0.667-0.72,0.969-1.162C39.662,14.26,39.764,14.418,39.845,14.597z
		 M33.782,13.405c0.821-0.009,1.612,0.142,2.342,0.533c0.301,0.161,0.525,0.358,0.733,0.565c-0.862,0.498-1.789,0.707-2.799,0.579
		c0.003-0.453-0.035-0.903-0.156-1.346c-0.032-0.117-0.082-0.22-0.122-0.331C33.781,13.404,33.781,13.405,33.782,13.405z
		 M37.513,25.337c0.342-0.357,0.636-0.762,0.88-1.198c-0.42,1.293-0.68,2.714-0.666,4.083c-0.103-0.161-0.216-0.316-0.324-0.473
		C37.439,26.942,37.431,26.142,37.513,25.337z M45.653,20.523c0.156,0.713-0.233,1.752-0.923,1.901
		c-0.652,0.141-1.56,0.001-2.191-0.117c-1.202-0.224-2.274-0.735-3.282-1.394c0.004-0.66-0.086-1.316-0.292-1.93
		c0.557-0.12,1.089-0.289,1.585-0.507c-0.005,0.04-0.005,0.082,0.026,0.122c0.434,0.578,0.932,0.889,1.645,1.05
		C43.305,19.893,45.335,19.07,45.653,20.523z M40.843,10.669c1.058,0.6,1.989,1.441,2.706,2.425
		c1.322,1.816,1.735,3.861,1.652,6.064c0,0.013,0.01,0.02,0.013,0.032c-0.341-0.005-0.689,0.039-0.885,0.047
		c-1.263,0.049-2.515,0.194-3.428-0.89c-0.012-0.014-0.029-0.011-0.043-0.02c0.288-0.146,0.565-0.305,0.815-0.496
		c0.499-0.381,0.669-0.826,0.642-1.293c0.259,0.772,0.398,1.578,0.436,2.432c0.011,0.241,0.354,0.238,0.373,0
		c0.098-1.277-0.239-2.571-0.864-3.686c-0.309-0.551-0.709-1.074-1.161-1.517c-0.193-0.189-0.722-0.5-1.052-0.782
		c0.01-0.042,0.023-0.085,0.025-0.127c0.03-0.549-0.217-1.048-0.539-1.491c0.001-0.002,0.003-0.001,0.004-0.003
		C39.949,10.594,39.869,10.117,40.843,10.669z M39.591,10.099c-0.049,0.214-0.098,0.428-0.147,0.642
		c-0.016-0.031-0.041-0.06-0.079-0.084c-0.227-0.144-0.475-0.269-0.723-0.394C38.926,10.07,39.234,10.033,39.591,10.099z
		 M38.719,10.843c-0.007,0.037-0.004,0.076,0.024,0.115c0.065,0.089,0.12,0.167,0.176,0.247c-0.145,0.295-0.283,0.59-0.416,0.895
		c-0.058,0.132-0.397,1.131-0.523,1.187c-0.306,0.137-1.361-0.717-1.655-0.844c-1.058-0.458-2.177-0.573-3.307-0.423
		c-0.53-0.655-1.223-1.162-2.034-1.509c-0.018-0.033-0.044-0.061-0.063-0.093C33.756,9.705,36.054,9.567,38.719,10.843z
		 M27.862,8.955c0.024,0.076,0.073,0.142,0.176,0.169c5.743,1.525,0.895,8.867,1.504,12.224c0.267,1.473,1.001,2.255,1.921,3.368
		c3.213,3.884,4.8,7.053,3.332,12.216c-1.561,5.49-6.193,8.994-11.91,7.894C4.648,41.315,8.227,4.443,27.862,8.955z M21.318,45.177
		c0.014,0.004,0.027,0.01,0.041,0.014c8.686,2.678,15.5-4.996,14.653-13.483c-0.214-2.145-0.909-4.02-2.262-5.703
		c-2.683-3.34-3.51-6.057-2.565-10.133c0.39-1.683,0.553-3.423,0.056-4.799c2.338,1.462,2.332,3.754,2.17,6.453
		c-0.098,1.62,0.059,3.124,0.424,4.649c-0.103-0.025-0.225,0.043-0.187,0.176c0.453,1.57,1.287,2.697,2.282,3.969
		c0.813,1.038,1.427,2.077,1.884,3.135c0.003,0.019,0.003,0.038,0.006,0.057c0.006,0.039,0.026,0.063,0.051,0.077
		c0.964,2.318,1.087,4.751,0.281,7.584c-0.214,0.754-0.499,1.458-0.82,2.133c-0.017-0.012-0.028-0.032-0.045-0.044
		c-0.086-0.06-0.203,0.059-0.144,0.144c0.028,0.041,0.06,0.077,0.089,0.117C34.277,45.469,27.41,48.136,21.318,45.177z
		 M38.659,46.349c0.391,3.05-8.009,0.814-9.384,0.256c-0.124-0.051-0.216,0.164-0.092,0.218c3.139,1.396,6.441,1.717,9.791,0.95
		c0.087-0.02,0.156-0.114,0.154-0.202c-0.018-0.701-0.083-1.39-0.174-2.081c0.58,0.632,0.969,1.776,0.453,2.566
		c-0.638,0.976-2.679,0.779-3.666,0.779c-2.759,0-5.38-0.534-7.704-2.035c1.533-0.182,3.036-0.658,4.412-1.42
		c0.007,0.006,0.007,0.015,0.016,0.02c0.998,0.518,1.993,0.665,3.109,0.591C36.672,45.917,38.474,44.91,38.659,46.349z
		 M44.15,42.614c0.081,0.369,0.162,0.738,0.243,1.108c0.001,0.188-0.21,1.177-0.319,1.329c-1.177,1.641-4.85-0.397-6.192-1.208
		c-0.102-0.297-0.213-0.592-0.356-0.872c1.699,1.367,3.759,2.099,6.012,2.131c0.126,0.002,0.199-0.1,0.214-0.214
		c0.1-0.778,0.198-1.556,0.296-2.334C44.083,42.572,44.115,42.596,44.15,42.614z M44.122,41.552
		c-0.04-0.065-0.103-0.117-0.174-0.117c-0.547,0-1.317,0.068-2.144,0.105c0.096-0.399,0.124-0.805,0.098-1.205
		c0.277-0.267,0.552-0.529,0.887-0.73c0.432-0.258,0.886-0.352,1.358-0.5c0.082-0.026,0.113-0.102,0.101-0.171
		c0.909,0.362,2.226,0.9,3.09,0.762c0.241,0.278,0.444,0.578,0.613,0.903C46.644,40.599,45.225,40.836,44.122,41.552z
		 M48.322,39.665c0.072,0.274,0.062,0.544,0.017,0.813c-0.169-0.332-0.369-0.636-0.609-0.915c0.175-0.102,0.282-0.258,0.365-0.433
		C48.182,39.302,48.27,39.472,48.322,39.665z M47.41,37.044c0.016-0.194,0.059-0.42,0.076-0.644c0.422,0.485,0.644,1.03,0.35,1.815
		c-0.242,0.648-0.541,0.878-1.402,0.86c-0.466-0.01-1.014-0.258-1.456-0.386c-1.627-0.469-3.19-1.101-4.71-1.841
		c-0.189-0.202-0.213-0.218-0.476-0.262c0.332-0.397,0.682-0.775,1.055-1.13c-0.467,1.034,1.546,1.989,2.252,2.348
		c0.869,0.442,1.803,0.745,2.765,0.904c0.354,0.059,0.979,0.252,1.282-0.01C47.483,38.41,47.377,37.44,47.41,37.044z M46.99,36.423
		c0.059,0.192-0.052,0.871-0.091,1.035c-0.244,1.041-1.002,0.829-1.911,0.592c-0.593-0.154-4.397-1.422-3.976-2.546
		c0.024-0.064-0.043-0.111-0.099-0.105c0.239-0.225,0.476-0.452,0.736-0.655c0.148-0.116,0.308-0.206,0.462-0.309
		c0.314,0.64,0.793,1.068,1.457,1.334c0.895,0.358,1.661,0.134,2.567,0.169C46.554,35.954,46.88,36.067,46.99,36.423z M46.07,35.253
		c-0.103,0.064-0.077,0.177-0.006,0.235c-0.179,0.04-0.347,0.08-0.48,0.094c-0.175,0.018-0.349,0.024-0.522,0.022
		c0.562-0.305,1.054-0.806,1.142-1.453c0.199-0.185,0.365-0.361,0.464-0.491c0.47-0.618,0.618-1.304,0.405-1.988
		c0.03-0.082,0.064-0.164,0.076-0.249c0.116-0.804-0.715-1.788-1.09-2.419c-0.166-0.279-0.337-0.554-0.513-0.823
		C48.682,29.456,48.967,33.453,46.07,35.253z M45.44,27.709c-0.01,0.013-0.005,0.027-0.01,0.041
		c-0.063-0.008-0.109,0.014-0.142,0.056c-0.478-0.693-0.994-1.349-1.58-1.927c0.736-0.394,1.547-0.781,2.194-1.299
		c0.969-0.426,2.351-0.883,3.292-0.602c0.92,0.275,0.947,1.835,1.026,2.842C48.671,26.171,46.506,26.292,45.44,27.709z
		 M50.582,26.443c-0.067-0.677-0.12-1.381-0.301-2.009c-0.121-0.42-0.321-0.677-0.743-0.818c-0.872-0.291-1.952-0.045-2.898,0.344
		c0.019-0.096,0.026-0.197,0.06-0.274c-0.019,0.042-0.005-0.103,0.022-0.318c0.152-0.037,0.317-0.077,0.484-0.118
		c0.075,0.112,0.267,0.074,0.29-0.069c0.831-0.191,1.733-0.341,2.213-0.058c0.564,0.333,0.692,1.133,0.847,1.755
		C50.661,25.298,51.046,26.241,50.582,26.443z"/>
	<path style="fill:#1D1D1B;" d="M28.203,20.612c-0.017-0.101-0.186-0.078-0.179,0.024c0.257,3.731,3.007,6.128,4.414,9.451
		c1.773,4.185,1.596,9.783-2.659,12.467c-3.549,2.239-8.09,1.284-11.163-1.238c-9.693-7.955-7.21-29.025,5.844-31.963
		c0.165-0.037,0.132-0.323-0.041-0.3C10.496,10.844,8.761,34.046,18.31,41.715c3.992,3.206,10.121,3.561,13.688-0.524
		C38.096,34.211,29.283,27.165,28.203,20.612z"/>
	<path style="fill:#1D1D1B;" d="M25.578,9.552c-0.133,0.019-0.099,0.234,0.031,0.231c2.631-0.051,3.924,1.447,3.772,4.031
		c-0.104,1.772-0.601,3.413-1.383,4.999c-0.125,0.254,0.254,0.479,0.382,0.224C29.982,15.853,31.254,8.751,25.578,9.552z"/>
	<path style="fill:#1D1D1B;" d="M25.623,35.715c-0.557-1.627-2.356-1.908-3.878-1.904c0.059-0.072-0.01-0.193-0.103-0.135
		c-0.064,0.04-0.12,0.091-0.181,0.135c-0.002,0-0.004,0-0.006,0c-0.081,0.002-0.122,0.053-0.142,0.111
		c-1.071,0.867-1.59,2.348-1.036,3.672c0.594,1.419,2.405,2.149,3.831,1.59C25.448,38.658,26.081,37.053,25.623,35.715z
		 M24.162,38.673c-1.156,0.63-2.787,0.078-3.414-1.048c-0.645-1.158-0.246-2.607,0.652-3.501c0.019,0.007,0.03,0.023,0.054,0.024
		c1.272,0.03,2.906,0.011,3.615,1.292C25.668,36.52,25.247,38.082,24.162,38.673z"/>
	<path style="fill:#1D1D1B;" d="M22.15,34.744c-0.172-0.033-0.246,0.229-0.073,0.264c0.84,0.169,1.932,0.393,2.243,1.323
		c0.338,1.01-0.781,1.702-1.661,1.569c-1.771-0.268-1.857-2.545-0.393-3.307c0.08-0.042,0.025-0.178-0.062-0.148
		c-2.069,0.725-1.557,3.715,0.598,3.848c0.934,0.058,1.97-0.614,1.918-1.638C24.654,35.363,23.18,34.944,22.15,34.744z"/>
	<path style="fill:#1D1D1B;" d="M47.349,15.241c-3.681-6.936-12.023-7.854-19.103-7.734c-0.182,0.003-0.179,0.27,0,0.281
		c7.037,0.457,14.846,0.725,18.69,7.694C47.085,15.752,47.493,15.512,47.349,15.241z"/>
</g>
<g>
</g>
<g>
</g>
<g>
</g>
<g>
</g>
<g>
</g>
<g>
</g>
<g>
</g>
<g>
</g>
<g>
</g>
<g>
</g>
<g>
</g>
<g>
</g>
<g>
</g>
<g>
</g>
<g>
</g>
</svg>
