<?xml version="1.0" encoding="iso-8859-1"?>
<!-- Generator: Adobe Illustrator 18.0.0, SVG Export Plug-In . SVG Version: 6.00 Build 0)  -->
<!DOCTYPE svg PUBLIC "-//W3C//DTD SVG 1.1//EN" "http://www.w3.org/Graphics/SVG/1.1/DTD/svg11.dtd">
<svg version="1.1" id="Capa_1" xmlns="http://www.w3.org/2000/svg" xmlns:xlink="http://www.w3.org/1999/xlink" x="0px" y="0px"
	 viewBox="0 0 48.073 48.073" style="enable-background:new 0 0 48.073 48.073;" xml:space="preserve">
<g>
	<path style="fill:#1D1D1B;" d="M6.514,1.053C6.383,1.314,6.311,1.589,6.285,1.869c-0.127,0.104-0.156,0.322,0,0.433
		c0.016,0.187,0.047,0.374,0.106,0.557C6.458,3.067,6.8,2.961,6.758,2.749C6.742,2.667,6.74,2.586,6.734,2.504
		c4.432,1.831,8.814,3.76,13.182,5.719c-5.179,1.565-10.258,3.499-15.353,5.313c-0.258,0.092-0.22,0.38-0.052,0.518
		c-0.293,0.274-0.221,0.762-0.053,1.092c0.195,0.383,0.56,0.626,0.986,0.662c0.177,0.015,0.246-0.135,0.217-0.265
		c5.75-1.635,11.382-3.853,16.899-6.139c6.821,3.084,13.608,6.237,20.459,9.278c-0.004,0.019-0.009,0.04-0.013,0.059
		c-0.038,0.195,0.292,0.28,0.342,0.084c0.097-0.382,0.155-0.872,0.359-1.212c0.208-0.345-0.216-0.53-0.415-0.379
		c-3.09-3.995-10.299-5.724-14.706-7.764c-1.31-0.606-2.619-1.214-3.927-1.822c4.831-1.556,9.533-3.573,14.184-5.591
		c0.271-0.118,0.151-0.486-0.088-0.512c0.061-0.202,0.039-0.429-0.09-0.57c0.206-0.109,0.047-0.423-0.186-0.351
		c-5.551,1.733-11.142,3.594-16.54,5.764c-4.623-2.147-9.25-4.29-13.906-6.361C7.948-0.011,7.872-0.006,7.81,0.024
		C7.26-0.026,6.734,0.615,6.514,1.053z M5.387,15.335c-0.243-0.085-0.421-0.288-0.484-0.543c-0.053-0.214,0.032-0.417,0.017-0.634
		c-0.002-0.028-0.017-0.047-0.028-0.069c5.173-1.835,10.414-3.555,15.485-5.66c0.511,0.23,1.026,0.453,1.537,0.684
		C16.431,11.257,10.866,13.187,5.387,15.335z M38.236,1.145c0.097,0.112,0.26,0.266,0.066,0.434
		c-0.05,0.044-0.066,0.095-0.064,0.144c-4.647,1.983-9.382,3.745-14.031,5.716c-0.633-0.294-1.268-0.586-1.901-0.881
		C27.673,4.996,33.005,3.111,38.236,1.145z M7.82,0.574c5.627,2.669,11.31,5.224,16.974,7.812c2.683,1.226,5.368,2.448,8.051,3.674
		c3.199,1.461,7.938,2.765,10.191,5.569c0.047,0.059,0.104,0.081,0.161,0.082c-0.009,0.178-0.041,0.362-0.082,0.545
		C31.457,11.98,19.06,6.834,6.774,1.926c0.054-0.227,0.144-0.447,0.28-0.655C7.256,0.961,7.567,0.8,7.818,0.573
		C7.818,0.573,7.819,0.574,7.82,0.574z"/>
	<path style="fill:#1D1D1B;" d="M41.762,26.791c0.041-0.495-0.726-0.49-0.77,0c-0.002,0.027-0.007,0.054-0.009,0.081
		c-0.081-0.055-0.187-0.078-0.3-0.029c-0.059,0.025-0.12,0.047-0.18,0.072c0.369-0.904,0.296-2.131-0.514-2.747
		c-0.38-0.289-0.882-0.393-1.333-0.301c-0.041-0.516-0.381-1.012-0.886-1.24c-0.923-0.418-1.772,0.175-2.3,0.922
		c-0.11-0.244-0.272-0.435-0.464-0.576c0.672-0.641,1.458-1.762,0.642-2.601c-0.751-0.772-1.811-0.343-2.598,0.153
		c-0.299-1.104-1.587-1.563-2.418-0.843c0.035-0.79-0.505-1.649-1.226-1.908c-0.872-0.313-1.809,0.142-2.221,0.91
		c-0.346-0.616-1.041-1.029-1.767-0.93c-0.428,0.058-0.792,0.279-1.051,0.589c-0.304-0.45-0.744-0.808-1.182-0.911
		c-1.051-0.246-2.033,0.568-2.248,1.55c-0.177-0.215-0.426-0.384-0.697-0.454c-0.803-0.207-1.442,0.368-1.869,0.995
		c-0.483-0.557-1.34-0.779-1.986-0.325c-0.637,0.447-0.703,1.297-0.337,1.914c-0.14,0.04-0.28,0.093-0.414,0.178
		c-0.481,0.306-0.715,0.803-0.739,1.317c-0.396-0.341-0.957-0.518-1.489-0.441c-1.235,0.179-1.731,1.441-1.799,2.567
		c-0.61-0.296-1.388-0.112-1.85,0.444c-0.62,0.747-0.39,1.709,0.102,2.457c-0.264-0.102-0.533-0.19-0.795-0.3
		c-0.076-0.032-0.137-0.002-0.186,0.044c-0.139-0.061-0.321-0.013-0.311,0.185c0.33,6.71,3.963,12.981,9.648,15.966
		c-0.255,0.467-0.506,0.934-0.817,1.367c-0.098,0.135-0.032,0.269,0.08,0.342c-0.076,0.052-0.114,0.152-0.027,0.244
		c3.769,4.009,12.553,2.757,16.858,0.326c0.139-0.079,0.173-0.21,0.143-0.328c0.111-0.038,0.2-0.161,0.125-0.281
		c-0.404-0.647-0.793-1.316-1.307-1.881C38.57,40.096,41.204,33.495,41.762,26.791z M25.095,18.372
		c0.807-0.39,1.614,0.206,1.807,0.995c0.079,0.321,0.544,0.181,0.488-0.135c0-0.001-0.001-0.003-0.001-0.004
		c0.286-0.735,1.127-1.281,1.905-0.911c0.78,0.371,0.841,1.192,0.637,1.919c-0.014,0.051,0,0.09,0.011,0.129
		c-0.381-0.059-0.778-0.046-1.079,0.015c-0.197,0.04-0.156,0.376,0.048,0.356c0.364-0.037,0.721-0.033,1.074,0.074
		c0.318,0.096,0.562,0.322,0.875,0.407c0.142,0.038,0.279-0.125,0.197-0.256c-0.154-0.243-0.414-0.403-0.713-0.503
		c0.007-0.006,0.014-0.011,0.021-0.015c0.057,0.005,0.115-0.008,0.158-0.071c0.67-1.003,2.091-0.69,2.097,0.573
		c0.001,0.181,0.219,0.331,0.382,0.219c0.395-0.273,1.001-0.756,1.51-0.691c0.849,0.5,1.061,1.007,0.638,1.519
		c-0.181,0.233-0.376,0.453-0.585,0.661c-0.028,0.029-0.046,0.06-0.059,0.091c-0.514-0.136-1.089-0.015-1.462,0.377
		c-0.141-0.392-0.4-0.74-0.778-0.949c-0.701-0.387-1.531-0.203-2.093,0.295c-0.273-0.959-1.406-1.419-2.236-0.851
		c-0.116-1.094-0.929-2.109-2.125-2.145c-0.13-0.004-0.246,0.024-0.366,0.043c-0.015-0.021-0.041-0.033-0.067-0.016
		c-0.032,0.021-0.066,0.031-0.1,0.036c-0.007,0.002-0.015,0.001-0.021,0.003c-0.108,0.007-0.219-0.046-0.313-0.083
		c-0.072-0.029-0.139,0.068-0.099,0.129c0.023,0.035,0.05,0.053,0.077,0.074c-0.058-0.024-0.119-0.047-0.179-0.07
		c0.019-0.264-0.033-0.539-0.143-0.804C24.74,18.615,24.902,18.465,25.095,18.372z M18.151,20.143c0.084,0.184,0.366,0.161,0.457,0
		c0.152-0.27,0.322-0.556,0.557-0.765c0.525-0.466,1.65-0.451,1.471,0.57c-0.009,0.049,0.005,0.089,0.02,0.128
		c-0.275,0.092-0.547,0.188-0.804,0.263c-0.226,0.066-0.132,0.408,0.097,0.353c0.65-0.156,1.446-0.229,2.036-0.547
		c0.159-0.086,0.087-0.345-0.092-0.341c-0.244,0.006-0.495,0.06-0.747,0.127c0-0.001,0-0.002,0.001-0.003
		c0.042-0.018,0.077-0.051,0.069-0.109c-0.133-1.042,0.843-2.277,1.982-1.859c0.409,0.15,0.711,0.517,0.865,0.919
		c-0.062,0.171-0.103,0.352-0.11,0.54c-0.003,0.067,0.052,0.141,0.118,0.155c0.027,0.006,0.052,0.016,0.079,0.022
		c-0.025,0.2-0.075,0.399-0.103,0.62c-0.006,0.047,0.007,0.085,0.029,0.117c-0.311,0.41-0.504,0.918-0.531,1.443
		c-0.977-0.671-2.203-0.407-2.838,0.443c-0.141-0.418-0.437-0.786-0.849-0.962c-0.732-0.312-1.494,0.021-1.922,0.614
		c-0.362-0.52-0.968-0.853-1.583-0.812C15.671,19.875,17.513,18.752,18.151,20.143z M9.849,26.285
		c0.062-0.899,1.125-1.673,1.83-0.866c0.145,0.166,0.448,0.035,0.438-0.181c-0.033-0.715,0.065-1.566,0.596-2.107
		c0.715-0.727,2.137-0.478,2.184,0.666c0.002,0.039,0.026,0.058,0.039,0.088c-0.493,0.116-0.979,0.323-1.358,0.522
		c-0.149,0.078-0.045,0.339,0.116,0.276c0.419-0.164,0.847-0.293,1.293-0.358c0.404-0.059,0.823-0.012,1.219-0.107
		c0.178-0.042,0.159-0.291,0-0.342c-0.165-0.054-0.344-0.069-0.527-0.071c0.026-0.058,0.034-0.122-0.012-0.183
		c-0.369-0.49-0.432-1.233,0.032-1.711c0.65-0.669,1.734-0.159,1.969,0.63c0.079,0.266,0.453,0.261,0.535,0
		c0.22-0.699,1.103-1.175,1.73-0.57c0.434,0.419,0.336,0.961,0.151,1.449c-0.038,0.101,0,0.17,0.058,0.22
		c-0.521-0.091-1.08-0.062-1.515,0.039c-0.141,0.033-0.107,0.247,0.034,0.249c0.439,0.004,0.89,0.034,1.316,0.147
		c0.389,0.104,0.74,0.323,1.131,0.406c0.176,0.037,0.308-0.169,0.178-0.306c-0.162-0.169-0.376-0.283-0.605-0.376
		c0-0.007,0.006-0.009,0.006-0.016c-0.081-1.714,1.853-2.467,2.973-1.219c0.183,0.204,0.483-0.015,0.432-0.251
		c-0.247-1.14,0.647-2.555,1.991-2.25c1.073,0.244,1.507,1.429,1.236,2.38c-0.003,0.012-0.001,0.021-0.003,0.033
		c-0.337-0.006-0.677,0.039-0.958,0.133c-0.213,0.072-0.128,0.396,0.093,0.339c0.362-0.094,0.717-0.111,1.083-0.019
		c0.288,0.072,0.53,0.24,0.808,0.335c0.203,0.069,0.328-0.2,0.198-0.341c-0.177-0.192-0.419-0.296-0.676-0.367
		c0.035-0.117,0.047-0.238,0.063-0.359c0.723-0.73,2.004-0.156,1.746,0.96c-0.066,0.286,0.355,0.497,0.495,0.209
		c0.311-0.636,1.116-1.08,1.808-0.698c0.699,0.386,0.72,1.277,0.393,1.899c-0.164,0.311,0.26,0.541,0.461,0.27
		c0.224-0.301,0.33-0.667,0.334-1.035c0.418-0.9,1.868-0.847,1.952,0.413c0.015,0.231,0.353,0.371,0.472,0.128
		c0.227-0.46,0.53-0.93,1.018-1.154c0.716-0.33,1.685,0.208,1.483,0.934c-0.117,0.09-0.223,0.195-0.308,0.329
		c-0.316-0.076-0.64-0.108-0.871-0.084c-0.224,0.024-0.235,0.368,0,0.359c0.375-0.015,0.728,0.055,1.054,0.251
		c0.245,0.147,0.391,0.377,0.658,0.474c0.131,0.048,0.225-0.092,0.205-0.205c-0.041-0.231-0.199-0.406-0.405-0.542
		c0.093-0.125,0.148-0.26,0.187-0.398c0.427-0.084,0.923,0.085,1.205,0.41c0.564,0.651,0.305,1.543,0.081,2.264
		c-0.02,0.064-0.007,0.121,0.016,0.171c-0.316,0.127-0.63,0.26-0.949,0.38c0.113-0.747-0.344-1.558-1.096-1.776
		c-0.555-0.161-1.097,0.049-1.468,0.434c-0.106-0.273-0.281-0.516-0.497-0.649c-0.92-0.566-1.75,0.231-2.069,1.087
		c-0.854-0.773-2.16-0.571-2.692,0.397c-0.103-0.528-0.527-1.061-0.979-1.199c-0.791-0.242-1.519,0.364-1.674,1.098
		c-0.326-0.603-1.23-1.04-1.831-0.701c-0.896,0.505-0.771,1.959,0.18,2.304c0.159,0.058,0.25-0.184,0.112-0.267
		c-0.502-0.302-0.64-1.24-0.079-1.568c0.332-0.194,0.742-0.02,0.975,0.247c0.231,0.264,0.198,0.545,0.247,0.865
		c0.022,0.142,0.24,0.195,0.329,0.087c0.067-0.082,0.095-0.168,0.128-0.253c0.101,0.126,0.331,0.049,0.289-0.14
		c-0.16-0.716,0.65-1.572,1.354-1.096c0.486,0.329,0.414,0.797,0.35,1.276c-0.285-0.086-0.593-0.11-0.88-0.082
		c-0.252,0.025-0.262,0.413,0,0.401c0.563-0.026,0.93,0.216,1.401,0.469c0.156,0.084,0.381-0.097,0.262-0.262
		c-0.07-0.098-0.168-0.164-0.26-0.235c0.083,0.008,0.17-0.028,0.19-0.124c0.263-1.262,1.763-1.692,2.477-0.506
		c0.149,0.247,0.487,0.123,0.511-0.138c0.048-0.52,0.676-1.779,1.459-1.107c0.387,0.332,0.265,0.797-0.022,1.126
		c-0.039,0.044-0.056,0.094-0.058,0.142c-0.327-0.013-0.653-0.018-0.954-0.041c-0.201-0.015-0.251,0.328-0.048,0.356
		c0.722,0.1,1.573,0.35,2.299,0.259c0.21-0.026,0.265-0.301,0.051-0.376c-0.217-0.077-0.455-0.117-0.698-0.146
		c0.019-0.021,0.031-0.049,0.039-0.081c0.128-0.151,0.191-0.346,0.197-0.56c0.271-0.432,0.804-0.709,1.303-0.478
		c0.553,0.255,0.721,0.87,0.559,1.416c-0.004,0.013,0.006,0.023,0.004,0.036c-8.487,3.064-18.001,3.44-26.616,0.586
		c-0.112-0.198-0.032-0.511,0.089-0.709c0.209-0.343,0.645-0.473,1.026-0.477c0.728-0.008,1.383,0.437,1.664,1.097
		c-0.229,0.052-0.454,0.104-0.664,0.146c-0.154,0.031-0.121,0.288,0.037,0.276c0.644-0.047,1.437-0.017,2.043-0.243
		c0.184-0.069,0.151-0.321-0.046-0.338c-0.265-0.024-0.55,0.008-0.836,0.056c-0.013-0.039-0.036-0.073-0.052-0.112
		c0.118,0.056,0.284-0.084,0.195-0.21c-0.452-0.644-0.388-1.636,0.354-2.034c0.771-0.414,1.668,0.055,1.887,0.888
		c0.08,0.305,0.503,0.22,0.526-0.071c0.134-1.766,2.788-0.93,1.774,0.656c-0.221,0.008-0.441,0.031-0.646,0.081
		c-0.176,0.043-0.099,0.297,0.074,0.268c0.232-0.04,0.44-0.035,0.642-0.014c0.067,0.043,0.153,0.058,0.235,0.035
		c0.346,0.07,0.677,0.199,1.046,0.347c0.146,0.058,0.265-0.162,0.152-0.262c-0.258-0.226-0.579-0.349-0.916-0.411
		c0.008-0.016,0.011-0.034,0.019-0.05c0.057-0.007,0.111-0.031,0.142-0.099c0.184-0.398,0.381-0.878,0.779-1.111
		c0.415-0.244,1.191,0.063,0.93,0.629c-0.107,0.232,0.16,0.464,0.362,0.279c0.625-0.573-0.068-1.477-0.751-1.575
		c-0.596-0.086-1.056,0.309-1.361,0.802c-0.111-0.484-0.424-0.918-0.925-1.099c-0.784-0.282-1.53,0.152-1.882,0.813
		c-0.504-0.685-1.427-1.044-2.249-0.619c-0.813,0.42-1.033,1.381-0.746,2.17c-0.606-0.688-1.641-0.998-2.512-0.63
		c-0.477,0.202-0.807,0.619-0.827,1.15c-0.003,0.081,0.009,0.158,0.024,0.234c-0.321-0.111-0.635-0.243-0.953-0.36
		C10.089,27.37,9.81,26.851,9.849,26.285z M34.088,45.232c-0.032,0.006-0.064,0.012-0.098,0.031
		c-4.262,2.353-12.089,3.205-16.246,0.014c0.064-0.025,0.121-0.077,0.153-0.17c0.167-0.488,0.398-0.95,0.623-1.413
		c2.074,1.032,4.406,1.639,6.952,1.666c2.873,0.03,5.31-0.639,7.374-1.792C33.183,44.173,33.638,44.704,34.088,45.232z
		 M25.472,44.584c-9.391-0.095-15.279-8.138-16.404-16.768c9.284,4.64,22.769,4.626,31.857-0.443
		C39.981,36.123,35.55,44.685,25.472,44.584z"/>
</g>
<g>
</g>
<g>
</g>
<g>
</g>
<g>
</g>
<g>
</g>
<g>
</g>
<g>
</g>
<g>
</g>
<g>
</g>
<g>
</g>
<g>
</g>
<g>
</g>
<g>
</g>
<g>
</g>
<g>
</g>
</svg>
